<?xml version="1.0" encoding="utf-8"?>
<!-- Generator: Adobe Illustrator 16.0.0, SVG Export Plug-In . SVG Version: 6.00 Build 0)  -->
<!DOCTYPE svg PUBLIC "-//W3C//DTD SVG 1.1//EN" "http://www.w3.org/Graphics/SVG/1.1/DTD/svg11.dtd">
<svg version="1.1" id="Layer_1" xmlns="http://www.w3.org/2000/svg" xmlns:xlink="http://www.w3.org/1999/xlink" x="0px" y="0px"
	 width="1024px" height="1024px" viewBox="0 0 1024 1024" enable-background="new 0 0 1024 1024" xml:space="preserve">
<path fill="#F07C38" d="M511.986,102.4c-225.788,0-409.483,183.677-409.483,409.504c0,225.788,183.696,409.499,409.483,409.499
	c225.816,0,409.513-183.711,409.513-409.499C921.498,286.077,737.802,102.4,511.986,102.4z M511.986,163.405
	c192.171,0,348.499,156.329,348.499,348.498c0,31.942-4.326,62.893-12.414,92.302c-10.241-11.332-29.268-20.489-60.579-33.584
	c-36.685-15.332-48.451-28.254-48.451-55.986c0-16.66,11.233-11.194,16.163-41.668c2.028-12.63,11.943-0.219,13.822-29.073
	c0-11.506-5.407-14.394-5.407-14.394s2.766-16.98,3.814-30.107c1.36-16.299-8.226-58.459-59.167-58.459
	c-50.93,0-60.502,42.16-59.168,58.459c1.091,13.127,3.786,30.107,3.786,30.107s-5.365,2.887-5.365,14.394
	c1.88,28.854,11.766,16.443,13.821,29.073c4.917,30.474,16.15,25.008,16.15,41.668c0,18.847-5.461,30.857-20.493,41.459
	c80.219,40.135,90.949,48.32,90.949,84.229v127.796c-12.501,11.521-25.843,22.14-39.924,31.754l0.516-85.771c0,0,0-53.325,0-67.597
	c0-20.343-38.414-39.537-84.849-59.179h-0.015c-2.016-0.859-3.989-1.675-5.992-2.532c-48.953-20.461-64.573-37.721-64.573-74.693
	c0-22.168,14.927-14.923,21.502-55.558c2.723-16.844,15.933-0.272,18.466-38.74c0-15.348-7.23-19.167-7.23-19.167
	s3.661-22.666,5.121-40.137c1.768-21.774-10.991-77.986-78.94-77.986l-0.042,0.014l-0.054-0.014
	c-67.937,0-80.683,56.212-78.898,77.986c1.416,17.471,5.093,40.137,5.093,40.137s-7.217,3.819-7.217,19.167
	c2.547,38.468,15.741,21.896,18.479,38.74c6.562,40.635,21.501,33.389,21.501,55.558c0,36.973-15.659,54.232-64.601,74.693
	c-2.016,0.857-3.99,1.673-5.965,2.532h-0.04c-46.422,19.642-84.85,38.836-84.85,59.179c0,14.271,0,67.597,0,67.597l0.395,85.689
	c-14.097-9.635-27.453-20.276-39.965-31.82V640.316c0-35.902,10.715-44.088,90.949-84.223
	c-15.005-10.602-20.493-22.612-20.493-41.459c0-16.66,11.261-11.194,16.149-41.668c2.07-12.664,11.942-0.219,13.836-29.101
	c0-11.479-5.408-14.366-5.408-14.366s2.751-17.008,3.842-30.107c1.347-16.299-8.213-58.459-59.167-58.459
	c-50.942,0-60.528,42.16-59.208,58.459c1.088,13.1,3.827,30.107,3.827,30.107s-5.38,2.887-5.38,14.366
	c1.853,28.882,11.792,16.437,13.81,29.101c4.956,30.474,16.136,25.008,16.136,41.668c0,27.732-11.75,40.654-48.436,55.986
	c-31.18,13.044-50.191,22.18-60.455,33.452c-8.064-29.37-12.377-60.276-12.377-92.17
	C163.488,319.734,319.816,163.405,511.986,163.405z"/>
</svg>
